<svg width="69" height="45" viewBox="0 0 69 45" fill="none" xmlns="http://www.w3.org/2000/svg">
<path fill-rule="evenodd" clip-rule="evenodd" d="M0 0H68.4278V44.7359H0V0ZM9.34759 33.5028V32.4588C10.1876 32.0748 11.1716 31.7868 12.2996 31.5948V10.2468C11.7476 10.1268 11.2196 9.99478 10.7156 9.85078C10.2116 9.68278 9.75559 9.51478 9.34759 9.34678V8.30278H13.0196C13.4276 8.30278 13.9076 8.29078 14.4596 8.26678C15.0116 8.24278 15.5756 8.21878 16.1516 8.19478C16.7516 8.14678 17.3156 8.11078 17.8436 8.08678C18.3956 8.03878 18.8516 8.01478 19.2116 8.01478C19.9639 8.01478 20.6839 8.0519 21.3717 8.12615V5.05984H21.7417V8.17007C24.6105 8.54204 26.8991 9.58228 28.6076 11.2908C30.8156 13.4748 31.9196 16.5708 31.9196 20.5788C31.9196 22.4748 31.6436 24.2388 31.0916 25.8708C30.5636 27.4788 29.7476 28.8708 28.6436 30.0468C27.5396 31.2228 26.1356 32.1468 24.4316 32.8188C23.6096 33.1476 22.713 33.3959 21.7417 33.5638V37.1554H21.3717V33.6234C20.4626 33.759 19.4906 33.8268 18.4556 33.8268C18.0956 33.8268 17.6876 33.8028 17.2316 33.7548C16.7756 33.7308 16.2956 33.6948 15.7916 33.6468C15.2876 33.6228 14.7716 33.5868 14.2436 33.5388C13.7396 33.5148 13.2596 33.5028 12.8036 33.5028H9.34759ZM21.7417 31.5867C22.2414 31.4408 22.706 31.2515 23.1356 31.0188C24.2876 30.3948 25.2236 29.5668 25.9436 28.5348C26.6876 27.4788 27.2276 26.2668 27.5636 24.8988C27.8996 23.5308 28.0676 22.0908 28.0676 20.5788C28.0676 19.4028 27.8996 18.1908 27.5636 16.9428C27.2516 15.6708 26.7236 14.5188 25.9796 13.4868C25.2596 12.4308 24.2996 11.5668 23.0996 10.8948C22.6793 10.6594 22.2267 10.4653 21.7417 10.3124L21.7417 18.6805C22.5701 18.6805 23.2417 19.3521 23.2417 20.1805C23.2417 21.009 22.5701 21.6805 21.7417 21.6805L21.7417 31.5867ZM21.3717 21.6346V31.6853C20.6282 31.8649 19.8122 31.9548 18.9236 31.9548H18.2036H17.1956C16.8356 31.9308 16.4996 31.9188 16.1876 31.9188C15.8756 31.8948 15.6596 31.8708 15.5396 31.8468V10.0308C15.8756 9.95878 16.3316 9.92278 16.9076 9.92278C17.4836 9.89878 18.0836 9.88678 18.7076 9.88678C19.6791 9.88678 20.5671 9.99298 21.3717 10.2054V18.7265C20.7222 18.8913 20.2417 19.4798 20.2417 20.1805C20.2417 20.8813 20.7222 21.4698 21.3717 21.6346ZM35.1959 8.30278H44.3399V9.34678C43.9079 9.53878 43.4639 9.71878 43.0079 9.88678C42.5519 10.0308 42.0839 10.1508 41.6039 10.2468V30.4068C41.6039 32.0868 41.4119 33.4668 41.0279 34.5468C40.6439 35.6268 40.1639 36.4908 39.5879 37.1388C39.0359 37.8108 38.4359 38.3028 37.7879 38.6148C37.1639 38.9268 36.5879 39.1428 36.0599 39.2628L35.6639 38.7228C36.0239 38.4108 36.3479 38.0508 36.6359 37.6428C36.9479 37.2588 37.2119 36.7668 37.4279 36.1668C37.6679 35.5668 37.8479 34.8348 37.9679 33.9708C38.0879 33.1068 38.1479 32.0508 38.1479 30.8028V10.2468C37.6199 10.1268 37.1039 9.99478 36.5999 9.85078C36.0959 9.70678 35.6279 9.53878 35.1959 9.34678V8.30278ZM43.4765 24.2068H48.7325V23.6848C48.4325 23.5528 48.1325 23.4388 47.8325 23.3428C47.5325 23.2348 47.2325 23.1448 46.9325 23.0728V11.3908H46.4825C45.9785 11.7988 45.4325 12.1408 44.8445 12.4168C44.2565 12.6808 43.6865 12.9028 43.1345 13.0828L43.2245 13.5148C43.6085 13.5268 43.9805 13.5088 44.3405 13.4608C44.7005 13.4008 45.0485 13.3048 45.3845 13.1728L45.3125 14.2348V23.0728C45.0005 23.1448 44.6885 23.2348 44.3765 23.3428C44.0765 23.4388 43.7765 23.5528 43.4765 23.6848V24.2068ZM52.3901 13.0288C51.6701 14.1208 51.3101 15.7468 51.3101 17.9068C51.3101 18.9388 51.3821 19.8568 51.5261 20.6608C51.6821 21.4648 51.9221 22.1488 52.2461 22.7128C52.5701 23.2648 52.9901 23.6908 53.5061 23.9908C54.0118 24.273 54.6211 24.4169 55.3342 24.4226V27.5028H55.5337V24.4205C56.8726 24.3817 57.8887 23.8364 58.5821 22.7848C59.3141 21.6928 59.6801 20.0668 59.6801 17.9068C59.6801 15.7108 59.3441 14.0788 58.6721 13.0108C58.0075 11.9426 56.9613 11.4027 55.5337 11.391V10.1947H55.3342V11.3932C54.0641 11.4331 53.0828 11.9783 52.3901 13.0288ZM55.3342 12.1514C54.5142 12.2019 53.9288 12.6684 53.5781 13.5508C53.2181 14.4748 53.0381 15.9268 53.0381 17.9068C53.0381 18.7708 53.0801 19.5568 53.1641 20.2648C53.2481 20.9728 53.3801 21.5848 53.5601 22.1008C53.7521 22.6048 53.9921 22.9948 54.2801 23.2708C54.5739 23.5411 54.9253 23.679 55.3342 23.6846V19.1329C54.9839 19.0441 54.7248 18.7267 54.7248 18.3488C54.7248 17.9709 54.9839 17.6535 55.3342 17.5647V12.1514ZM55.5337 19.1577C55.9804 19.1577 56.3426 18.7955 56.3426 18.3488C56.3426 17.902 55.9804 17.5399 55.5337 17.5399L55.5337 12.1472C55.9924 12.1561 56.3725 12.294 56.6741 12.5608C56.9981 12.8368 57.2561 13.2268 57.4481 13.7308C57.6401 14.2348 57.7721 14.8408 57.8441 15.5488C57.9161 16.2568 57.9521 17.0428 57.9521 17.9068C57.9521 19.8868 57.7541 21.3448 57.3581 22.2808C56.998 23.1586 56.3899 23.6248 55.5337 23.6794L55.5337 19.1577ZM43.2435 30.5005L43.2435 28.3693H43.1499V30.4998C42.9486 30.5028 42.7638 30.5387 42.5954 30.6076C42.4234 30.6756 42.2754 30.7776 42.1514 30.9136C42.0274 31.0456 41.9314 31.2096 41.8634 31.4056C41.7994 31.5976 41.7674 31.8196 41.7674 32.0716C41.7674 32.3076 41.7954 32.5236 41.8514 32.7196C41.9114 32.9116 41.9994 33.0776 42.1154 33.2176C42.2314 33.3536 42.3774 33.4596 42.5534 33.5356C42.7226 33.6048 42.9215 33.6408 43.1499 33.6434V36.4843H43.2435L43.2435 33.6425C43.6446 33.6292 43.9666 33.4936 44.2094 33.2356C44.4654 32.9636 44.5934 32.5756 44.5934 32.0716C44.5934 31.8356 44.5654 31.6216 44.5094 31.4296C44.4574 31.2376 44.3734 31.0736 44.2574 30.9376C44.1454 30.7976 43.9994 30.6896 43.8194 30.6136C43.6556 30.5444 43.4636 30.5068 43.2435 30.5005ZM43.1499 30.7638C43.1431 30.7637 43.1363 30.7636 43.1294 30.7636C42.8934 30.7636 42.7034 30.8696 42.5594 31.0816C42.4154 31.2936 42.3434 31.6236 42.3434 32.0716C42.3434 32.2516 42.3594 32.4216 42.3914 32.5816C42.4274 32.7416 42.4814 32.8816 42.5534 33.0016C42.6294 33.1176 42.7274 33.2096 42.8474 33.2776C42.9353 33.3274 43.0362 33.359 43.1499 33.3723V32.5601C42.9857 32.5184 42.8642 32.3696 42.8642 32.1924C42.8642 32.0152 42.9857 31.8664 43.1499 31.8248V30.7638ZM43.2435 33.3791V32.5717C43.4529 32.5717 43.6227 32.4019 43.6227 32.1924C43.6227 31.983 43.4529 31.8132 43.2435 31.8132L43.2435 30.7701C43.3517 30.783 43.4477 30.8148 43.5314 30.8656C43.6434 30.9336 43.7354 31.0276 43.8074 31.1476C43.8794 31.2636 43.9314 31.4016 43.9634 31.5616C43.9994 31.7176 44.0174 31.8876 44.0174 32.0716C44.0174 32.5196 43.9474 32.8496 43.8074 33.0616C43.6714 33.2736 43.4954 33.3796 43.2794 33.3796C43.2673 33.3796 43.2553 33.3794 43.2435 33.3791ZM30.1602 32.7168C30.1602 32.8048 30.1622 32.8808 30.1662 32.9448C30.1702 33.0088 30.1742 33.0768 30.1782 33.1488L30.5922 33.2088V33.3348C30.4922 33.3868 30.3802 33.4328 30.2562 33.4728C30.1362 33.5128 30.0202 33.5428 29.9082 33.5628H29.7582C29.7182 33.4708 29.6942 33.3708 29.6862 33.2628C29.6782 33.1508 29.6722 33.0288 29.6682 32.8968H29.6382C29.6222 32.9768 29.5902 33.0588 29.5422 33.1428C29.4982 33.2228 29.4382 33.2948 29.3622 33.3588C29.2902 33.4228 29.2042 33.4748 29.1042 33.5148C29.0042 33.5548 28.8902 33.5748 28.7622 33.5748C28.5182 33.5748 28.3182 33.5008 28.1622 33.3528C28.0102 33.2048 27.9342 33.0108 27.9342 32.7708C27.9342 32.5868 27.9702 32.4368 28.0422 32.3208C28.1182 32.2008 28.2282 32.1068 28.3722 32.0388C28.5162 31.9708 28.6942 31.9228 28.9062 31.8948C29.1182 31.8628 29.3642 31.8388 29.6442 31.8228C29.6602 31.6508 29.6642 31.4968 29.6562 31.3608C29.6522 31.2208 29.6302 31.1028 29.5902 31.0068C29.5542 30.9068 29.4982 30.8308 29.4222 30.7788C29.3502 30.7228 29.2542 30.6948 29.1342 30.6948C29.0782 30.6948 29.0142 30.6988 28.9422 30.7068C28.8742 30.7108 28.8062 30.7268 28.7382 30.7548L28.4562 31.4748H28.3002C28.2602 31.3548 28.2242 31.2308 28.1922 31.1028C28.1642 30.9748 28.1462 30.8488 28.1382 30.7248C28.2902 30.6328 28.4582 30.5608 28.6422 30.5088C28.8302 30.4568 29.0382 30.4308 29.2662 30.4308C29.4702 30.4308 29.6322 30.4608 29.7522 30.5208C29.8762 30.5768 29.9702 30.6508 30.0342 30.7428C30.0982 30.8348 30.1402 30.9368 30.1602 31.0488C30.1802 31.1608 30.1902 31.2728 30.1902 31.3848C30.1902 31.6248 30.1842 31.8568 30.1722 32.0808C30.1642 32.3008 30.1602 32.5128 30.1602 32.7168ZM29.0022 33.2028C29.1022 33.2028 29.1902 33.1828 29.2662 33.1428C29.3422 33.1028 29.4062 33.0548 29.4582 32.9988C29.5102 32.9428 29.5522 32.8868 29.5842 32.8308C29.6162 32.7708 29.6382 32.7208 29.6502 32.6808V32.0508C29.4182 32.0508 29.2282 32.0628 29.0802 32.0868C28.9322 32.1108 28.8162 32.1488 28.7322 32.2008C28.6482 32.2528 28.5902 32.3188 28.5582 32.3988C28.5262 32.4748 28.5102 32.5628 28.5102 32.6628C28.5102 32.8348 28.5542 32.9688 28.6422 33.0648C28.7302 33.1568 28.8502 33.2028 29.0022 33.2028ZM32.9675 32.9088C32.9475 32.9968 32.9135 33.0808 32.8655 33.1608C32.8175 33.2408 32.7575 33.3128 32.6855 33.3768C32.6175 33.4368 32.5375 33.4848 32.4455 33.5208C32.3575 33.5568 32.2615 33.5748 32.1575 33.5748C31.7615 33.5748 31.4655 33.4488 31.2695 33.1968C31.0735 32.9448 30.9755 32.5528 30.9755 32.0208C30.9755 31.5088 31.0995 31.1188 31.3475 30.8508C31.5995 30.5828 31.9375 30.4488 32.3615 30.4488C32.5095 30.4488 32.6255 30.4568 32.7095 30.4728C32.7935 30.4848 32.8855 30.5088 32.9855 30.5448V29.4108L32.5295 29.3628V29.2068C32.6455 29.1588 32.7795 29.1168 32.9315 29.0808C33.0875 29.0448 33.2355 29.0148 33.3755 28.9908H33.5255V33.1608L33.9215 33.2088V33.3348C33.8055 33.3908 33.6855 33.4388 33.5615 33.4788C33.4375 33.5188 33.3155 33.5468 33.1955 33.5628H33.0455L32.9915 32.9088H32.9675ZM32.2775 33.2028C32.4735 33.2028 32.6295 33.1408 32.7455 33.0168C32.8615 32.8928 32.9415 32.7248 32.9855 32.5128V30.8208C32.9175 30.7808 32.8375 30.7528 32.7455 30.7368C32.6535 30.7208 32.5355 30.7128 32.3915 30.7128C32.1195 30.7128 31.9115 30.8328 31.7675 31.0728C31.6235 31.3088 31.5515 31.6248 31.5515 32.0208C31.5515 32.1848 31.5655 32.3388 31.5935 32.4828C31.6215 32.6228 31.6655 32.7468 31.7255 32.8548C31.7855 32.9628 31.8595 33.0488 31.9475 33.1128C32.0395 33.1728 32.1495 33.2028 32.2775 33.2028ZM47.7958 30.5716H46.6378V30.7276C46.7338 30.7956 46.8318 30.8436 46.9318 30.8716C46.8718 30.9556 46.8058 31.0436 46.7338 31.1356C46.6618 31.2276 46.5878 31.3216 46.5118 31.4176C46.4358 31.5096 46.3598 31.5996 46.2838 31.6876C46.2078 31.7756 46.1378 31.8556 46.0738 31.9276H45.9178V29.0596H45.7678C45.6278 29.0876 45.4798 29.1176 45.3238 29.1496C45.1678 29.1816 45.0338 29.2236 44.9218 29.2756V29.4316L45.3778 29.4796V33.2776C45.2458 33.3096 45.1138 33.3576 44.9818 33.4216V33.5716H46.3078V33.4216C46.1798 33.3496 46.0498 33.3016 45.9178 33.2776V32.0836L46.1158 32.1436C46.2318 32.3236 46.3598 32.5176 46.4998 32.7256C46.6398 32.9296 46.8158 33.1636 47.0278 33.4276L47.1898 33.5716H47.9338V33.4216L47.5978 33.2776C47.4938 33.1616 47.3878 33.0376 47.2798 32.9056C47.1758 32.7736 47.0738 32.6436 46.9738 32.5156C46.8738 32.3876 46.7798 32.2676 46.6918 32.1556C46.6078 32.0396 46.5358 31.9416 46.4758 31.8616C46.5278 31.8096 46.5898 31.7436 46.6618 31.6636C46.7378 31.5836 46.8158 31.4976 46.8958 31.4056C46.9758 31.3136 47.0538 31.2216 47.1298 31.1296C47.2098 31.0376 47.2798 30.9516 47.3398 30.8716C47.4198 30.8556 47.4958 30.8356 47.5678 30.8116C47.6438 30.7876 47.7198 30.7596 47.7958 30.7276V30.5716ZM50.3872 33.3436C50.4552 33.2836 50.5052 33.2196 50.5372 33.1516L50.4532 33.0556C50.3812 33.1196 50.2732 33.1716 50.1292 33.2116C49.9852 33.2516 49.8432 33.2716 49.7032 33.2716C49.5312 33.2716 49.3812 33.2416 49.2532 33.1816C49.1252 33.1176 49.0192 33.0316 48.9352 32.9236C48.8512 32.8156 48.7872 32.6896 48.7432 32.5456C48.7032 32.3976 48.6832 32.2396 48.6832 32.0716H50.5552C50.5712 31.9916 50.5812 31.9176 50.5852 31.8496C50.5932 31.7776 50.5972 31.7076 50.5972 31.6396C50.5972 31.4236 50.5632 31.2436 50.4952 31.0996C50.4312 30.9516 50.3452 30.8336 50.2372 30.7456C50.1332 30.6576 50.0132 30.5956 49.8772 30.5596C49.7412 30.5196 49.6032 30.4996 49.4632 30.4996C49.0312 30.4996 48.6972 30.6336 48.4612 30.9016C48.2252 31.1696 48.1072 31.5596 48.1072 32.0716C48.1072 32.3116 48.1372 32.5276 48.1972 32.7196C48.2612 32.9116 48.3532 33.0776 48.4732 33.2176C48.5932 33.3536 48.7432 33.4596 48.9232 33.5356C49.1032 33.6076 49.3112 33.6436 49.5472 33.6436C49.6552 33.6436 49.7612 33.6296 49.8652 33.6016C49.9692 33.5776 50.0652 33.5436 50.1532 33.4996C50.2412 33.4556 50.3192 33.4036 50.3872 33.3436ZM48.9172 30.9976C49.0372 30.8416 49.2112 30.7636 49.4392 30.7636C49.6432 30.7636 49.7932 30.8396 49.8892 30.9916C49.9852 31.1436 50.0332 31.3476 50.0332 31.6036C50.0332 31.6356 50.0312 31.6696 50.0272 31.7056C50.0272 31.7376 50.0252 31.7716 50.0212 31.8076H48.7012C48.7252 31.4196 48.7972 31.1496 48.9172 30.9976ZM52.5408 32.6056C52.6128 32.6816 52.6488 32.7756 52.6488 32.8876C52.6488 33.0236 52.5948 33.1396 52.4868 33.2356C52.3788 33.3316 52.2368 33.3796 52.0608 33.3796C52.0088 33.3796 51.9508 33.3776 51.8868 33.3736C51.8268 33.3696 51.7748 33.3516 51.7308 33.3196L51.4668 32.6656H51.3168C51.2728 32.7896 51.2368 32.9196 51.2088 33.0556C51.1808 33.1876 51.1628 33.3256 51.1548 33.4696C51.3108 33.5256 51.4608 33.5676 51.6048 33.5956C51.7488 33.6276 51.9068 33.6436 52.0788 33.6436C52.2308 33.6436 52.3728 33.6216 52.5048 33.5776C52.6408 33.5376 52.7588 33.4796 52.8588 33.4036C52.9628 33.3276 53.0428 33.2356 53.0988 33.1276C53.1588 33.0196 53.1888 32.8976 53.1888 32.7616C53.1888 32.6136 53.1528 32.4876 53.0808 32.3836C53.0128 32.2756 52.9248 32.1816 52.8168 32.1016C52.7088 32.0216 52.5928 31.9496 52.4688 31.8856C52.3488 31.8216 52.2348 31.7576 52.1268 31.6936C52.0188 31.6256 51.9288 31.5536 51.8568 31.4776C51.7888 31.3976 51.7548 31.3036 51.7548 31.1956C51.7548 31.1436 51.7648 31.0916 51.7848 31.0396C51.8048 30.9876 51.8328 30.9416 51.8688 30.9016C51.9088 30.8616 51.9548 30.8296 52.0068 30.8056C52.0628 30.7776 52.1268 30.7636 52.1988 30.7636C52.2628 30.7636 52.3248 30.7676 52.3848 30.7756C52.4448 30.7796 52.4988 30.7916 52.5468 30.8116L52.7748 31.4236H52.9248C52.9648 31.2876 52.9948 31.1556 53.0148 31.0276C53.0388 30.8956 53.0588 30.7656 53.0748 30.6376C52.9468 30.5936 52.8128 30.5596 52.6728 30.5356C52.5368 30.5116 52.3608 30.4996 52.1448 30.4996C52.0168 30.4996 51.8968 30.5196 51.7848 30.5596C51.6728 30.5956 51.5748 30.6476 51.4908 30.7156C51.4068 30.7796 51.3388 30.8576 51.2868 30.9496C51.2388 31.0416 51.2148 31.1416 51.2148 31.2496C51.2148 31.4136 51.2488 31.5516 51.3168 31.6636C51.3888 31.7756 51.4788 31.8756 51.5868 31.9636C51.6948 32.0476 51.8088 32.1216 51.9288 32.1856C52.0528 32.2496 52.1688 32.3156 52.2768 32.3836C52.3848 32.4516 52.4728 32.5256 52.5408 32.6056Z" fill="#4B4B4B"/>
</svg>
