<svg width="55" height="37" viewBox="0 0 55 37" fill="none" xmlns="http://www.w3.org/2000/svg">
<path d="M3.41869 30.3246V29.2806C4.25869 28.8966 5.2427 28.6086 6.3707 28.4166V7.06855C5.8187 6.94855 5.2907 6.81655 4.78669 6.67255C4.28269 6.50455 3.82669 6.33655 3.41869 6.16855V5.12455H7.0907C7.4987 5.12455 7.97869 5.11255 8.53069 5.08855C9.0827 5.06455 9.6467 5.04055 10.2227 5.01655C10.8227 4.96855 11.3867 4.93255 11.9147 4.90855C12.4667 4.86055 12.9227 4.83655 13.2827 4.83655C17.3627 4.83655 20.4947 5.92855 22.6787 8.11255C24.8867 10.2966 25.9907 13.3926 25.9907 17.4006C25.9907 19.2966 25.7147 21.0606 25.1627 22.6926C24.6347 24.3006 23.8187 25.6926 22.7147 26.8686C21.6107 28.0446 20.2067 28.9686 18.5027 29.6406C16.8227 30.3126 14.8307 30.6486 12.5267 30.6486C12.1667 30.6486 11.7587 30.6246 11.3027 30.5766C10.8467 30.5526 10.3667 30.5166 9.86269 30.4686C9.3587 30.4446 8.8427 30.4086 8.3147 30.3606C7.8107 30.3366 7.3307 30.3246 6.87469 30.3246H3.41869ZM12.7787 6.70855C12.1547 6.70855 11.5547 6.72055 10.9787 6.74455C10.4027 6.74455 9.94669 6.78055 9.6107 6.85255V28.6686C9.7307 28.6926 9.9467 28.7166 10.2587 28.7406C10.5707 28.7406 10.9067 28.7526 11.2667 28.7766C11.6267 28.7766 11.9627 28.7766 12.2747 28.7766C12.6107 28.7766 12.8507 28.7766 12.9947 28.7766C14.6507 28.7766 16.0547 28.4646 17.2067 27.8406C18.3587 27.2166 19.2947 26.3886 20.0147 25.3566C20.7587 24.3006 21.2987 23.0886 21.6347 21.7206C21.9707 20.3526 22.1387 18.9126 22.1387 17.4006C22.1387 16.2246 21.9707 15.0126 21.6347 13.7646C21.3227 12.4926 20.7947 11.3406 20.0507 10.3086C19.3307 9.25255 18.3707 8.38855 17.1707 7.71655C15.9707 7.04455 14.5067 6.70855 12.7787 6.70855ZM29.267 5.12455H38.411V6.16855C37.979 6.36055 37.535 6.54055 37.079 6.70855C36.623 6.85255 36.155 6.97255 35.675 7.06855V27.2286C35.675 28.9086 35.483 30.2886 35.099 31.3686C34.715 32.4486 34.235 33.3126 33.659 33.9606C33.107 34.6326 32.507 35.1246 31.859 35.4366C31.235 35.7486 30.659 35.9646 30.131 36.0846L29.735 35.5446C30.095 35.2326 30.419 34.8726 30.707 34.4646C31.019 34.0806 31.283 33.5886 31.499 32.9886C31.739 32.3886 31.919 31.6566 32.039 30.7926C32.159 29.9286 32.219 28.8726 32.219 27.6246V7.06855C31.691 6.94855 31.175 6.81655 30.671 6.67255C30.167 6.52855 29.699 6.36055 29.267 6.16855V5.12455Z" fill="white"/>
<path d="M42.8036 21.0286H37.5476V20.5066C37.8476 20.3746 38.1476 20.2606 38.4476 20.1646C38.7596 20.0566 39.0716 19.9666 39.3836 19.8946V11.0566L39.4556 9.99456C39.1196 10.1266 38.7716 10.2226 38.4116 10.2826C38.0516 10.3306 37.6796 10.3486 37.2956 10.3366L37.2056 9.90456C37.7576 9.72456 38.3276 9.50256 38.9156 9.23856C39.5036 8.96256 40.0496 8.62056 40.5536 8.21256H41.0036V19.8946C41.3036 19.9666 41.6036 20.0566 41.9036 20.1646C42.2036 20.2606 42.5036 20.3746 42.8036 20.5066V21.0286ZM45.3812 14.7286C45.3812 12.5686 45.7412 10.9426 46.4612 9.85056C47.1812 8.75856 48.2132 8.21256 49.5572 8.21256C51.0092 8.21256 52.0712 8.75256 52.7432 9.83256C53.4152 10.9006 53.7512 12.5326 53.7512 14.7286C53.7512 16.8886 53.3852 18.5146 52.6532 19.6066C51.9332 20.6986 50.8652 21.2446 49.4492 21.2446C48.7172 21.2446 48.0932 21.1006 47.5772 20.8126C47.0612 20.5126 46.6412 20.0866 46.3172 19.5346C45.9932 18.9706 45.7532 18.2866 45.5972 17.4826C45.4532 16.6786 45.3812 15.7606 45.3812 14.7286ZM47.1092 14.7286C47.1092 15.5926 47.1512 16.3786 47.2352 17.0866C47.3192 17.7946 47.4512 18.4066 47.6312 18.9226C47.8232 19.4266 48.0632 19.8166 48.3512 20.0926C48.6512 20.3686 49.0112 20.5066 49.4312 20.5066C50.3792 20.5066 51.0452 20.0386 51.4292 19.1026C51.8252 18.1666 52.0232 16.7086 52.0232 14.7286C52.0232 13.8646 51.9872 13.0786 51.9152 12.3706C51.8432 11.6626 51.7112 11.0566 51.5192 10.5526C51.3272 10.0486 51.0692 9.65856 50.7452 9.38256C50.4332 9.10656 50.0372 8.96856 49.5572 8.96856C48.6572 8.96856 48.0212 9.43656 47.6492 10.3726C47.2892 11.2966 47.1092 12.7486 47.1092 14.7286Z" fill="white"/>
<rect x="14.3128" y="15.5023" width="3" height="3" rx="1.5" fill="white"/>
<rect x="15.4428" y="1.88162" width="0.369971" height="32.0956" fill="white"/>
<rect x="37.3023" y="28.4056" width="0.758514" height="0.758514" rx="0.379257" fill="white"/>
<rect x="37.588" y="24.9618" width="0.0935427" height="8.11498" fill="white"/>
<rect x="48.7959" y="14.3617" width="1.6178" height="1.6178" rx="0.808902" fill="white"/>
<rect x="49.4053" y="7.01648" width="0.199513" height="17.3081" fill="white"/>
<path d="M24.2313 29.5386C24.2313 29.6266 24.2333 29.7026 24.2373 29.7666C24.2413 29.8306 24.2453 29.8986 24.2493 29.9706L24.6633 30.0306V30.1566C24.5633 30.2086 24.4513 30.2546 24.3273 30.2946C24.2073 30.3346 24.0913 30.3646 23.9793 30.3846H23.8293C23.7893 30.2926 23.7653 30.1926 23.7573 30.0846C23.7493 29.9726 23.7433 29.8506 23.7393 29.7186H23.7093C23.6933 29.7986 23.6613 29.8806 23.6133 29.9646C23.5693 30.0446 23.5093 30.1166 23.4333 30.1806C23.3613 30.2446 23.2753 30.2966 23.1753 30.3366C23.0753 30.3766 22.9613 30.3966 22.8333 30.3966C22.5893 30.3966 22.3893 30.3226 22.2333 30.1746C22.0813 30.0266 22.0053 29.8326 22.0053 29.5926C22.0053 29.4086 22.0413 29.2586 22.1133 29.1426C22.1893 29.0226 22.2993 28.9286 22.4433 28.8606C22.5873 28.7926 22.7653 28.7446 22.9773 28.7166C23.1893 28.6846 23.4353 28.6606 23.7153 28.6446C23.7313 28.4726 23.7353 28.3186 23.7273 28.1826C23.7233 28.0426 23.7013 27.9246 23.6613 27.8286C23.6253 27.7286 23.5693 27.6526 23.4933 27.6006C23.4213 27.5446 23.3253 27.5166 23.2053 27.5166C23.1493 27.5166 23.0853 27.5206 23.0133 27.5286C22.9453 27.5326 22.8773 27.5486 22.8093 27.5766L22.5273 28.2966H22.3713C22.3313 28.1766 22.2953 28.0526 22.2633 27.9246C22.2353 27.7966 22.2173 27.6706 22.2093 27.5466C22.3613 27.4546 22.5293 27.3826 22.7133 27.3306C22.9013 27.2786 23.1093 27.2526 23.3373 27.2526C23.5413 27.2526 23.7033 27.2826 23.8233 27.3426C23.9473 27.3986 24.0413 27.4726 24.1053 27.5646C24.1693 27.6566 24.2113 27.7586 24.2313 27.8706C24.2513 27.9826 24.2613 28.0946 24.2613 28.2066C24.2613 28.4466 24.2553 28.6786 24.2433 28.9026C24.2353 29.1226 24.2313 29.3346 24.2313 29.5386ZM23.0733 30.0246C23.1733 30.0246 23.2613 30.0046 23.3373 29.9646C23.4133 29.9246 23.4773 29.8766 23.5293 29.8206C23.5813 29.7646 23.6233 29.7086 23.6553 29.6526C23.6873 29.5926 23.7093 29.5426 23.7213 29.5026V28.8726C23.4893 28.8726 23.2993 28.8846 23.1513 28.9086C23.0033 28.9326 22.8873 28.9706 22.8033 29.0226C22.7193 29.0746 22.6613 29.1406 22.6293 29.2206C22.5973 29.2966 22.5813 29.3846 22.5813 29.4846C22.5813 29.6566 22.6253 29.7906 22.7133 29.8866C22.8013 29.9786 22.9213 30.0246 23.0733 30.0246ZM27.0386 29.7306C27.0186 29.8186 26.9846 29.9026 26.9366 29.9826C26.8886 30.0626 26.8286 30.1346 26.7566 30.1986C26.6886 30.2586 26.6086 30.3066 26.5166 30.3426C26.4286 30.3786 26.3326 30.3966 26.2286 30.3966C25.8326 30.3966 25.5366 30.2706 25.3406 30.0186C25.1446 29.7666 25.0466 29.3746 25.0466 28.8426C25.0466 28.3306 25.1706 27.9406 25.4186 27.6726C25.6706 27.4046 26.0086 27.2706 26.4326 27.2706C26.5806 27.2706 26.6966 27.2786 26.7806 27.2946C26.8646 27.3066 26.9566 27.3306 27.0566 27.3666V26.2326L26.6006 26.1846V26.0286C26.7166 25.9806 26.8506 25.9386 27.0026 25.9026C27.1586 25.8666 27.3066 25.8366 27.4466 25.8126H27.5966V29.9826L27.9926 30.0306V30.1566C27.8766 30.2126 27.7566 30.2606 27.6326 30.3006C27.5086 30.3406 27.3866 30.3686 27.2666 30.3846H27.1166L27.0626 29.7306H27.0386ZM26.3486 30.0246C26.5446 30.0246 26.7006 29.9626 26.8166 29.8386C26.9326 29.7146 27.0126 29.5466 27.0566 29.3346V27.6426C26.9886 27.6026 26.9086 27.5746 26.8166 27.5586C26.7246 27.5426 26.6066 27.5346 26.4626 27.5346C26.1906 27.5346 25.9826 27.6546 25.8386 27.8946C25.6946 28.1306 25.6226 28.4466 25.6226 28.8426C25.6226 29.0066 25.6366 29.1606 25.6646 29.3046C25.6926 29.4446 25.7366 29.5686 25.7966 29.6766C25.8566 29.7846 25.9306 29.8706 26.0186 29.9346C26.1106 29.9946 26.2206 30.0246 26.3486 30.0246Z" fill="white"/>
<path d="M36.2054 28.8246C36.2054 28.5726 36.2374 28.3506 36.3014 28.1586C36.3694 27.9626 36.4654 27.7986 36.5894 27.6666C36.7134 27.5306 36.8614 27.4286 37.0334 27.3606C37.2094 27.2886 37.4034 27.2526 37.6154 27.2526C37.8634 27.2526 38.0774 27.2906 38.2574 27.3666C38.4374 27.4426 38.5834 27.5506 38.6954 27.6906C38.8114 27.8266 38.8954 27.9906 38.9474 28.1826C39.0034 28.3746 39.0314 28.5886 39.0314 28.8246C39.0314 29.3286 38.9034 29.7166 38.6474 29.9886C38.3914 30.2606 38.0474 30.3966 37.6154 30.3966C37.3754 30.3966 37.1674 30.3606 36.9914 30.2886C36.8154 30.2126 36.6694 30.1066 36.5534 29.9706C36.4374 29.8306 36.3494 29.6646 36.2894 29.4726C36.2334 29.2766 36.2054 29.0606 36.2054 28.8246ZM36.7814 28.8246C36.7814 29.0046 36.7974 29.1746 36.8294 29.3346C36.8654 29.4946 36.9194 29.6346 36.9914 29.7546C37.0674 29.8706 37.1654 29.9626 37.2854 30.0306C37.4054 30.0986 37.5494 30.1326 37.7174 30.1326C37.9334 30.1326 38.1094 30.0266 38.2454 29.8146C38.3854 29.6026 38.4554 29.2726 38.4554 28.8246C38.4554 28.6406 38.4374 28.4706 38.4014 28.3146C38.3694 28.1546 38.3174 28.0166 38.2454 27.9006C38.1734 27.7806 38.0814 27.6866 37.9694 27.6186C37.8574 27.5506 37.7234 27.5166 37.5674 27.5166C37.3314 27.5166 37.1414 27.6226 36.9974 27.8346C36.8534 28.0466 36.7814 28.3766 36.7814 28.8246ZM41.0758 27.3246H42.2338V27.4806C42.1578 27.5126 42.0818 27.5406 42.0058 27.5646C41.9338 27.5886 41.8578 27.6086 41.7778 27.6246C41.7178 27.7046 41.6478 27.7906 41.5678 27.8826C41.4918 27.9746 41.4138 28.0666 41.3338 28.1586C41.2538 28.2506 41.1758 28.3366 41.0998 28.4166C41.0278 28.4966 40.9658 28.5626 40.9138 28.6146C40.9738 28.6946 41.0458 28.7926 41.1298 28.9086C41.2178 29.0206 41.3118 29.1406 41.4118 29.2686C41.5118 29.3966 41.6138 29.5266 41.7178 29.6586C41.8258 29.7906 41.9318 29.9146 42.0358 30.0306L42.3718 30.1746V30.3246H41.6278L41.4658 30.1806C41.2538 29.9166 41.0778 29.6826 40.9378 29.4786C40.7978 29.2706 40.6698 29.0766 40.5538 28.8966L40.3558 28.8366V30.0306C40.4878 30.0546 40.6178 30.1026 40.7458 30.1746V30.3246H39.4198V30.1746C39.5518 30.1106 39.6838 30.0626 39.8158 30.0306V26.2326L39.3598 26.1846V26.0286C39.4718 25.9766 39.6058 25.9346 39.7618 25.9026C39.9178 25.8706 40.0658 25.8406 40.2058 25.8126H40.3558V28.6806H40.5118C40.5758 28.6086 40.6458 28.5286 40.7218 28.4406C40.7978 28.3526 40.8738 28.2626 40.9498 28.1706C41.0258 28.0746 41.0998 27.9806 41.1718 27.8886C41.2438 27.7966 41.3098 27.7086 41.3698 27.6246C41.2698 27.5966 41.1718 27.5486 41.0758 27.4806V27.3246ZM44.9753 29.9046C44.9433 29.9726 44.8933 30.0366 44.8253 30.0966C44.7573 30.1566 44.6793 30.2086 44.5913 30.2526C44.5033 30.2966 44.4073 30.3306 44.3033 30.3546C44.1993 30.3826 44.0933 30.3966 43.9853 30.3966C43.7493 30.3966 43.5413 30.3606 43.3613 30.2886C43.1813 30.2126 43.0313 30.1066 42.9113 29.9706C42.7913 29.8306 42.6993 29.6646 42.6353 29.4726C42.5753 29.2806 42.5453 29.0646 42.5453 28.8246C42.5453 28.3126 42.6633 27.9226 42.8993 27.6546C43.1353 27.3866 43.4693 27.2526 43.9013 27.2526C44.0413 27.2526 44.1793 27.2726 44.3153 27.3126C44.4513 27.3486 44.5713 27.4106 44.6753 27.4986C44.7833 27.5866 44.8693 27.7046 44.9333 27.8526C45.0013 27.9966 45.0353 28.1766 45.0353 28.3926C45.0353 28.4606 45.0313 28.5306 45.0233 28.6026C45.0193 28.6706 45.0093 28.7446 44.9933 28.8246H43.1213C43.1213 28.9926 43.1413 29.1506 43.1813 29.2986C43.2253 29.4426 43.2893 29.5686 43.3733 29.6766C43.4573 29.7846 43.5633 29.8706 43.6913 29.9346C43.8193 29.9946 43.9693 30.0246 44.1413 30.0246C44.2813 30.0246 44.4233 30.0046 44.5673 29.9646C44.7113 29.9246 44.8193 29.8726 44.8913 29.8086L44.9753 29.9046ZM43.8773 27.5166C43.6493 27.5166 43.4753 27.5946 43.3553 27.7506C43.2353 27.9026 43.1633 28.1726 43.1393 28.5606H44.4593C44.4633 28.5246 44.4653 28.4906 44.4653 28.4586C44.4693 28.4226 44.4713 28.3886 44.4713 28.3566C44.4713 28.1006 44.4233 27.8966 44.3273 27.7446C44.2313 27.5926 44.0813 27.5166 43.8773 27.5166ZM47.0868 29.6406C47.0868 29.5286 47.0508 29.4346 46.9788 29.3586C46.9108 29.2786 46.8228 29.2046 46.7148 29.1366C46.6068 29.0686 46.4908 29.0026 46.3668 28.9386C46.2468 28.8746 46.1328 28.8006 46.0248 28.7166C45.9168 28.6286 45.8268 28.5286 45.7548 28.4166C45.6868 28.3046 45.6528 28.1666 45.6528 28.0026C45.6528 27.8946 45.6768 27.7946 45.7248 27.7026C45.7768 27.6106 45.8448 27.5326 45.9288 27.4686C46.0128 27.4006 46.1108 27.3486 46.2228 27.3126C46.3348 27.2726 46.4548 27.2526 46.5828 27.2526C46.7988 27.2526 46.9748 27.2646 47.1108 27.2886C47.2508 27.3126 47.3848 27.3466 47.5128 27.3906C47.4968 27.5186 47.4768 27.6486 47.4528 27.7806C47.4328 27.9086 47.4028 28.0406 47.3628 28.1766H47.2128L46.9848 27.5646C46.9368 27.5446 46.8828 27.5326 46.8228 27.5286C46.7628 27.5206 46.7008 27.5166 46.6368 27.5166C46.5648 27.5166 46.5008 27.5306 46.4448 27.5586C46.3928 27.5826 46.3468 27.6146 46.3068 27.6546C46.2708 27.6946 46.2428 27.7406 46.2228 27.7926C46.2028 27.8446 46.1928 27.8966 46.1928 27.9486C46.1928 28.0566 46.2268 28.1506 46.2948 28.2306C46.3668 28.3066 46.4568 28.3786 46.5648 28.4466C46.6728 28.5106 46.7868 28.5746 46.9068 28.6386C47.0308 28.7026 47.1468 28.7746 47.2548 28.8546C47.3628 28.9346 47.4508 29.0286 47.5188 29.1366C47.5908 29.2406 47.6268 29.3666 47.6268 29.5146C47.6268 29.6506 47.5968 29.7726 47.5368 29.8806C47.4808 29.9886 47.4008 30.0806 47.2968 30.1566C47.1968 30.2326 47.0788 30.2906 46.9428 30.3306C46.8108 30.3746 46.6688 30.3966 46.5168 30.3966C46.3448 30.3966 46.1868 30.3806 46.0428 30.3486C45.8988 30.3206 45.7488 30.2786 45.5928 30.2226C45.6008 30.0786 45.6188 29.9406 45.6468 29.8086C45.6748 29.6726 45.7108 29.5426 45.7548 29.4186H45.9048L46.1688 30.0726C46.2128 30.1046 46.2648 30.1226 46.3248 30.1266C46.3888 30.1306 46.4468 30.1326 46.4988 30.1326C46.6748 30.1326 46.8168 30.0846 46.9248 29.9886C47.0328 29.8926 47.0868 29.7766 47.0868 29.6406Z" fill="white"/>
</svg>
