<svg width="69" height="46" viewBox="0 0 69 46" fill="none" xmlns="http://www.w3.org/2000/svg">
<path fill-rule="evenodd" clip-rule="evenodd" d="M0.506836 2.57855C0.506836 1.47398 1.40227 0.578552 2.50684 0.578552H66.9347C68.0392 0.578552 68.9347 1.47398 68.9347 2.57855V43.3145C68.9347 44.419 68.0392 45.3145 66.9347 45.3145H2.50684C1.40227 45.3145 0.506836 44.419 0.506836 43.3145V2.57855ZM9.85442 34.0813V33.0373C10.6944 32.6533 11.6784 32.3653 12.8064 32.1733V10.8253C12.2544 10.7053 11.7264 10.5733 11.2224 10.4293C10.7184 10.2613 10.2624 10.0933 9.85442 9.92533V8.88133H13.5264C13.9344 8.88133 14.4144 8.86933 14.9664 8.84533C15.5184 8.82133 16.0824 8.79733 16.6584 8.77333C17.2584 8.72533 17.8224 8.68933 18.3504 8.66533C18.9024 8.61733 19.3584 8.59333 19.7184 8.59333C20.4707 8.59333 21.1907 8.63045 21.8785 8.7047V5.6384H22.2485V8.74862C25.1173 9.12059 27.4059 10.1608 29.1144 11.8693C31.3224 14.0533 32.4264 17.1493 32.4264 21.1573C32.4264 23.0533 32.1504 24.8173 31.5984 26.4493C31.0704 28.0573 30.2544 29.4493 29.1504 30.6253C28.0464 31.8013 26.6424 32.7253 24.9384 33.3973C24.1165 33.7261 23.2198 33.9745 22.2485 34.1424V37.734H21.8785V34.2019C20.9695 34.3375 19.9974 34.4053 18.9624 34.4053C18.6024 34.4053 18.1944 34.3813 17.7384 34.3333C17.2824 34.3093 16.8024 34.2733 16.2984 34.2253C15.7944 34.2013 15.2784 34.1653 14.7504 34.1173C14.2464 34.0933 13.7664 34.0813 13.3104 34.0813H9.85442ZM22.2485 32.1653C22.7482 32.0193 23.2128 31.83 23.6424 31.5973C24.7944 30.9733 25.7304 30.1453 26.4504 29.1133C27.1944 28.0573 27.7344 26.8453 28.0704 25.4773C28.4064 24.1093 28.5744 22.6693 28.5744 21.1573C28.5744 19.9813 28.4064 18.7693 28.0704 17.5213C27.7584 16.2493 27.2304 15.0973 26.4864 14.0653C25.7664 13.0093 24.8064 12.1453 23.6064 11.4733C23.1862 11.238 22.7335 11.0438 22.2485 10.8909L22.2485 19.2591C23.0769 19.2591 23.7485 19.9307 23.7485 20.7591C23.7485 21.5875 23.0769 22.2591 22.2485 22.2591L22.2485 32.1653ZM21.8785 22.2131V32.2638C21.1351 32.4435 20.319 32.5333 19.4304 32.5333H18.7104H17.7024C17.3424 32.5093 17.0064 32.4973 16.6944 32.4973C16.3824 32.4733 16.1664 32.4493 16.0464 32.4253V10.6093C16.3824 10.5373 16.8384 10.5013 17.4144 10.5013C17.9904 10.4773 18.5904 10.4653 19.2144 10.4653C20.1859 10.4653 21.0739 10.5715 21.8785 10.7839V19.3051C21.229 19.4698 20.7485 20.0583 20.7485 20.7591C20.7485 21.4598 21.229 22.0484 21.8785 22.2131ZM35.7027 8.88133H44.8467V9.92533C44.4147 10.1173 43.9707 10.2973 43.5147 10.4653C43.0587 10.6093 42.5907 10.7293 42.1107 10.8253V30.9853C42.1107 32.6653 41.9187 34.0453 41.5347 35.1253C41.1507 36.2053 40.6707 37.0693 40.0947 37.7173C39.5427 38.3893 38.9427 38.8813 38.2947 39.1933C37.6707 39.5053 37.0947 39.7213 36.5667 39.8413L36.1707 39.3013C36.5307 38.9893 36.8547 38.6293 37.1427 38.2213C37.4547 37.8373 37.7187 37.3453 37.9347 36.7453C38.1747 36.1453 38.3547 35.4133 38.4747 34.5493C38.5947 33.6853 38.6547 32.6293 38.6547 31.3813V10.8253C38.1267 10.7053 37.6107 10.5733 37.1067 10.4293C36.6027 10.2853 36.1347 10.1173 35.7027 9.92533V8.88133ZM43.9833 24.7853H49.2393V24.2633C48.9393 24.1313 48.6393 24.0173 48.3393 23.9213C48.0393 23.8133 47.7393 23.7233 47.4393 23.6513V11.9693H46.9893C46.4853 12.3773 45.9393 12.7193 45.3513 12.9953C44.7633 13.2593 44.1933 13.4813 43.6413 13.6613L43.7313 14.0933C44.1153 14.1053 44.4873 14.0873 44.8473 14.0393C45.2073 13.9793 45.5553 13.8833 45.8913 13.7513L45.8193 14.8133V23.6513C45.5073 23.7233 45.1953 23.8133 44.8833 23.9213C44.5833 24.0173 44.2833 24.1313 43.9833 24.2633V24.7853ZM52.897 13.6073C52.177 14.6993 51.817 16.3253 51.817 18.4853C51.817 19.5173 51.889 20.4353 52.033 21.2393C52.189 22.0433 52.429 22.7273 52.753 23.2913C53.077 23.8433 53.497 24.2693 54.013 24.5693C54.5186 24.8516 55.128 24.9955 55.841 25.0012V28.0814H56.0405V24.9991C57.3794 24.9602 58.3956 24.415 59.089 23.3633C59.821 22.2713 60.187 20.6453 60.187 18.4853C60.187 16.2893 59.851 14.6573 59.179 13.5893C58.5143 12.5212 57.4682 11.9812 56.0405 11.9695V10.7733H55.841V11.9717C54.5709 12.0116 53.5896 12.5569 52.897 13.6073ZM55.841 12.7299C55.021 12.7804 54.4357 13.2469 54.085 14.1293C53.725 15.0533 53.545 16.5053 53.545 18.4853C53.545 19.3493 53.587 20.1353 53.671 20.8433C53.755 21.5513 53.887 22.1633 54.067 22.6793C54.259 23.1833 54.499 23.5733 54.787 23.8493C55.0808 24.1196 55.4321 24.2576 55.841 24.2632V19.7115C55.4907 19.6226 55.2316 19.3052 55.2316 18.9273C55.2316 18.5494 55.4907 18.2321 55.841 18.1432V12.7299ZM56.0405 19.7362C56.4873 19.7362 56.8494 19.3741 56.8494 18.9273C56.8494 18.4806 56.4873 18.1184 56.0405 18.1184L56.0405 12.7258C56.4992 12.7347 56.8793 12.8725 57.181 13.1393C57.505 13.4153 57.763 13.8053 57.955 14.3093C58.147 14.8133 58.279 15.4193 58.351 16.1273C58.423 16.8353 58.459 17.6213 58.459 18.4853C58.459 20.4653 58.261 21.9233 57.865 22.8593C57.5048 23.7371 56.8967 24.2033 56.0405 24.2579L56.0405 19.7362ZM43.7503 31.0791L43.7503 28.9479H43.6568V31.0784C43.4555 31.0813 43.2706 31.1173 43.1022 31.1862C42.9302 31.2542 42.7822 31.3562 42.6582 31.4922C42.5342 31.6242 42.4382 31.7882 42.3702 31.9842C42.3062 32.1762 42.2742 32.3982 42.2742 32.6502C42.2742 32.8862 42.3022 33.1022 42.3582 33.2982C42.4182 33.4902 42.5062 33.6562 42.6222 33.7962C42.7382 33.9322 42.8842 34.0382 43.0602 34.1142C43.2295 34.1834 43.4283 34.2193 43.6568 34.222V37.0629H43.7503L43.7503 34.2211C44.1514 34.2078 44.4734 34.0721 44.7162 33.8142C44.9722 33.5422 45.1002 33.1542 45.1002 32.6502C45.1002 32.4142 45.0722 32.2002 45.0162 32.0082C44.9642 31.8162 44.8802 31.6522 44.7642 31.5162C44.6522 31.3762 44.5062 31.2682 44.3262 31.1922C44.1624 31.123 43.9704 31.0853 43.7503 31.0791ZM43.6568 31.3424C43.65 31.3422 43.6431 31.3422 43.6362 31.3422C43.4002 31.3422 43.2102 31.4482 43.0662 31.6602C42.9222 31.8722 42.8502 32.2022 42.8502 32.6502C42.8502 32.8302 42.8662 33.0002 42.8982 33.1602C42.9342 33.3202 42.9882 33.4602 43.0602 33.5802C43.1362 33.6962 43.2342 33.7882 43.3542 33.8562C43.4422 33.906 43.543 33.9376 43.6568 33.9509V33.1386C43.4926 33.0969 43.3711 32.9482 43.3711 32.771C43.3711 32.5938 43.4926 32.445 43.6568 32.4033V31.3424ZM43.7503 33.9576V33.1502C43.9598 33.1502 44.1296 32.9804 44.1296 32.771C44.1296 32.5615 43.9598 32.3917 43.7503 32.3917L43.7503 31.3487C43.8586 31.3615 43.9545 31.3934 44.0382 31.4442C44.1502 31.5122 44.2422 31.6062 44.3142 31.7262C44.3862 31.8422 44.4382 31.9802 44.4702 32.1402C44.5062 32.2962 44.5242 32.4662 44.5242 32.6502C44.5242 33.0982 44.4542 33.4282 44.3142 33.6402C44.1782 33.8522 44.0022 33.9582 43.7862 33.9582C43.7741 33.9582 43.7622 33.958 43.7503 33.9576ZM30.667 33.2954C30.667 33.3834 30.669 33.4594 30.673 33.5234C30.677 33.5874 30.681 33.6554 30.685 33.7274L31.099 33.7874V33.9134C30.999 33.9654 30.887 34.0114 30.763 34.0514C30.643 34.0914 30.527 34.1214 30.415 34.1414H30.265C30.225 34.0494 30.201 33.9494 30.193 33.8414C30.185 33.7294 30.179 33.6074 30.175 33.4754H30.145C30.129 33.5554 30.097 33.6374 30.049 33.7214C30.005 33.8014 29.945 33.8734 29.869 33.9374C29.797 34.0014 29.711 34.0534 29.611 34.0934C29.511 34.1334 29.397 34.1534 29.269 34.1534C29.025 34.1534 28.825 34.0794 28.669 33.9314C28.517 33.7834 28.441 33.5894 28.441 33.3494C28.441 33.1654 28.477 33.0154 28.549 32.8994C28.625 32.7794 28.735 32.6854 28.879 32.6174C29.023 32.5494 29.201 32.5014 29.413 32.4734C29.625 32.4414 29.871 32.4174 30.151 32.4014C30.167 32.2294 30.171 32.0754 30.163 31.9394C30.159 31.7994 30.137 31.6814 30.097 31.5854C30.061 31.4854 30.005 31.4094 29.929 31.3574C29.857 31.3014 29.761 31.2734 29.641 31.2734C29.585 31.2734 29.521 31.2774 29.449 31.2854C29.381 31.2894 29.313 31.3054 29.245 31.3334L28.963 32.0534H28.807C28.767 31.9334 28.731 31.8094 28.699 31.6814C28.671 31.5534 28.653 31.4274 28.645 31.3034C28.797 31.2114 28.965 31.1394 29.149 31.0874C29.337 31.0354 29.545 31.0094 29.773 31.0094C29.977 31.0094 30.139 31.0394 30.259 31.0994C30.383 31.1554 30.477 31.2294 30.541 31.3214C30.605 31.4134 30.647 31.5154 30.667 31.6274C30.687 31.7394 30.697 31.8514 30.697 31.9634C30.697 32.2034 30.691 32.4354 30.679 32.6594C30.671 32.8794 30.667 33.0914 30.667 33.2954ZM29.509 33.7814C29.609 33.7814 29.697 33.7614 29.773 33.7214C29.849 33.6814 29.913 33.6334 29.965 33.5774C30.017 33.5214 30.059 33.4654 30.091 33.4094C30.123 33.3494 30.145 33.2994 30.157 33.2594V32.6294C29.925 32.6294 29.735 32.6414 29.587 32.6654C29.439 32.6894 29.323 32.7274 29.239 32.7794C29.155 32.8314 29.097 32.8974 29.065 32.9774C29.033 33.0534 29.017 33.1414 29.017 33.2414C29.017 33.4134 29.061 33.5474 29.149 33.6434C29.237 33.7354 29.357 33.7814 29.509 33.7814ZM33.4743 33.4874C33.4543 33.5754 33.4203 33.6594 33.3723 33.7394C33.3243 33.8194 33.2643 33.8914 33.1923 33.9554C33.1243 34.0154 33.0443 34.0634 32.9523 34.0994C32.8643 34.1354 32.7683 34.1534 32.6643 34.1534C32.2683 34.1534 31.9723 34.0274 31.7763 33.7754C31.5803 33.5234 31.4823 33.1314 31.4823 32.5994C31.4823 32.0874 31.6063 31.6974 31.8543 31.4294C32.1063 31.1614 32.4443 31.0274 32.8683 31.0274C33.0163 31.0274 33.1323 31.0354 33.2163 31.0514C33.3003 31.0634 33.3923 31.0874 33.4923 31.1234V29.9894L33.0363 29.9414V29.7854C33.1523 29.7374 33.2863 29.6954 33.4383 29.6594C33.5943 29.6234 33.7423 29.5934 33.8823 29.5694H34.0323V33.7394L34.4283 33.7874V33.9134C34.3123 33.9694 34.1923 34.0174 34.0683 34.0574C33.9443 34.0974 33.8223 34.1254 33.7023 34.1414H33.5523L33.4983 33.4874H33.4743ZM32.7843 33.7814C32.9803 33.7814 33.1363 33.7194 33.2523 33.5954C33.3683 33.4714 33.4483 33.3034 33.4923 33.0914V31.3994C33.4243 31.3594 33.3443 31.3314 33.2523 31.3154C33.1603 31.2994 33.0423 31.2914 32.8983 31.2914C32.6263 31.2914 32.4183 31.4114 32.2743 31.6514C32.1303 31.8874 32.0583 32.2034 32.0583 32.5994C32.0583 32.7634 32.0723 32.9174 32.1003 33.0614C32.1283 33.2014 32.1723 33.3254 32.2323 33.4334C32.2923 33.5414 32.3663 33.6274 32.4543 33.6914C32.5463 33.7514 32.6563 33.7814 32.7843 33.7814ZM48.3026 31.1502H47.1446V31.3062C47.2406 31.3742 47.3386 31.4222 47.4386 31.4502C47.3786 31.5342 47.3126 31.6222 47.2406 31.7142C47.1686 31.8062 47.0946 31.9002 47.0186 31.9962C46.9426 32.0882 46.8666 32.1782 46.7906 32.2662C46.7146 32.3542 46.6446 32.4342 46.5806 32.5062H46.4246V29.6382H46.2746C46.1346 29.6662 45.9866 29.6962 45.8306 29.7282C45.6746 29.7602 45.5406 29.8022 45.4286 29.8542V30.0102L45.8846 30.0582V33.8562C45.7526 33.8882 45.6206 33.9362 45.4886 34.0002V34.1502H46.8146V34.0002C46.6866 33.9282 46.5566 33.8802 46.4246 33.8562V32.6622L46.6226 32.7222C46.7386 32.9022 46.8666 33.0962 47.0066 33.3042C47.1466 33.5082 47.3226 33.7422 47.5346 34.0062L47.6966 34.1502H48.4406V34.0002L48.1046 33.8562C48.0006 33.7402 47.8946 33.6162 47.7866 33.4842C47.6826 33.3522 47.5806 33.2222 47.4806 33.0942C47.3806 32.9662 47.2866 32.8462 47.1986 32.7342C47.1146 32.6182 47.0426 32.5202 46.9826 32.4402C47.0346 32.3882 47.0966 32.3222 47.1686 32.2422C47.2446 32.1622 47.3226 32.0762 47.4026 31.9842C47.4826 31.8922 47.5606 31.8002 47.6366 31.7082C47.7166 31.6162 47.7866 31.5302 47.8466 31.4502C47.9266 31.4342 48.0026 31.4142 48.0746 31.3902C48.1506 31.3662 48.2266 31.3382 48.3026 31.3062V31.1502ZM50.8941 33.9222C50.9621 33.8622 51.0121 33.7982 51.0441 33.7302L50.9601 33.6342C50.8881 33.6982 50.7801 33.7502 50.6361 33.7902C50.4921 33.8302 50.3501 33.8502 50.2101 33.8502C50.0381 33.8502 49.8881 33.8202 49.7601 33.7602C49.6321 33.6962 49.5261 33.6102 49.4421 33.5022C49.3581 33.3942 49.2941 33.2682 49.2501 33.1242C49.2101 32.9762 49.1901 32.8182 49.1901 32.6502H51.0621C51.0781 32.5702 51.0881 32.4962 51.0921 32.4282C51.1001 32.3562 51.1041 32.2862 51.1041 32.2182C51.1041 32.0022 51.0701 31.8222 51.0021 31.6782C50.9381 31.5302 50.8521 31.4122 50.7441 31.3242C50.6401 31.2362 50.5201 31.1742 50.3841 31.1382C50.2481 31.0982 50.1101 31.0782 49.9701 31.0782C49.5381 31.0782 49.2041 31.2122 48.9681 31.4802C48.7321 31.7482 48.6141 32.1382 48.6141 32.6502C48.6141 32.8902 48.6441 33.1062 48.7041 33.2982C48.7681 33.4902 48.8601 33.6562 48.9801 33.7962C49.1001 33.9322 49.2501 34.0382 49.4301 34.1142C49.6101 34.1862 49.8181 34.2222 50.0541 34.2222C50.1621 34.2222 50.2681 34.2082 50.3721 34.1802C50.4761 34.1562 50.5721 34.1222 50.6601 34.0782C50.7481 34.0342 50.8261 33.9822 50.8941 33.9222ZM49.4241 31.5762C49.5441 31.4202 49.7181 31.3422 49.9461 31.3422C50.1501 31.3422 50.3001 31.4182 50.3961 31.5702C50.4921 31.7222 50.5401 31.9262 50.5401 32.1822C50.5401 32.2142 50.5381 32.2482 50.5341 32.2842C50.5341 32.3162 50.5321 32.3502 50.5281 32.3862H49.2081C49.2321 31.9982 49.3041 31.7282 49.4241 31.5762ZM53.0476 33.1842C53.1196 33.2602 53.1556 33.3542 53.1556 33.4662C53.1556 33.6022 53.1016 33.7182 52.9936 33.8142C52.8856 33.9102 52.7436 33.9582 52.5676 33.9582C52.5156 33.9582 52.4576 33.9562 52.3936 33.9522C52.3336 33.9482 52.2816 33.9302 52.2376 33.8982L51.9736 33.2442H51.8236C51.7796 33.3682 51.7436 33.4982 51.7156 33.6342C51.6876 33.7662 51.6696 33.9042 51.6616 34.0482C51.8176 34.1042 51.9676 34.1462 52.1116 34.1742C52.2556 34.2062 52.4136 34.2222 52.5856 34.2222C52.7376 34.2222 52.8796 34.2002 53.0116 34.1562C53.1476 34.1162 53.2656 34.0582 53.3656 33.9822C53.4696 33.9062 53.5496 33.8142 53.6056 33.7062C53.6656 33.5982 53.6956 33.4762 53.6956 33.3402C53.6956 33.1922 53.6596 33.0662 53.5876 32.9622C53.5196 32.8542 53.4316 32.7602 53.3236 32.6802C53.2156 32.6002 53.0996 32.5282 52.9756 32.4642C52.8556 32.4002 52.7416 32.3362 52.6336 32.2722C52.5256 32.2042 52.4356 32.1322 52.3636 32.0562C52.2956 31.9762 52.2616 31.8822 52.2616 31.7742C52.2616 31.7222 52.2716 31.6702 52.2916 31.6182C52.3116 31.5662 52.3396 31.5202 52.3756 31.4802C52.4156 31.4402 52.4616 31.4082 52.5136 31.3842C52.5696 31.3562 52.6336 31.3422 52.7056 31.3422C52.7696 31.3422 52.8316 31.3462 52.8916 31.3542C52.9516 31.3582 53.0056 31.3702 53.0536 31.3902L53.2816 32.0022H53.4316C53.4716 31.8662 53.5016 31.7342 53.5216 31.6062C53.5456 31.4742 53.5656 31.3442 53.5816 31.2162C53.4536 31.1722 53.3196 31.1382 53.1796 31.1142C53.0436 31.0902 52.8676 31.0782 52.6516 31.0782C52.5236 31.0782 52.4036 31.0982 52.2916 31.1382C52.1796 31.1742 52.0816 31.2262 51.9976 31.2942C51.9136 31.3582 51.8456 31.4362 51.7936 31.5282C51.7456 31.6202 51.7216 31.7202 51.7216 31.8282C51.7216 31.9922 51.7556 32.1302 51.8236 32.2422C51.8956 32.3542 51.9856 32.4542 52.0936 32.5422C52.2016 32.6262 52.3156 32.7002 52.4356 32.7642C52.5596 32.8282 52.6756 32.8942 52.7836 32.9622C52.8916 33.0302 52.9796 33.1042 53.0476 33.1842Z" fill="#4B4B4B"/>
</svg>
